<?xml version="1.0" standalone="no"?>
<!DOCTYPE svg PUBLIC "-//W3C//DTD SVG 20010904//EN"
 "http://www.w3.org/TR/2001/REC-SVG-20010904/DTD/svg10.dtd">
<svg version="1.0" xmlns="http://www.w3.org/2000/svg"
 width="1024.000000pt" height="1024.000000pt" viewBox="0 0 1024.000000 1024.000000"
 preserveAspectRatio="xMidYMid meet">

<g transform="translate(0.000000,1024.000000) scale(0.100000,-0.100000)"
fill="#000000" stroke="none">
<path d="M4753 8765 c-885 -92 -1690 -490 -2304 -1140 -508 -538 -848 -1242
-953 -1975 -42 -289 -46 -709 -11 -980 105 -820 458 -1542 1038 -2128 609
-616 1389 -985 2256 -1068 127 -13 226 -15 421 -10 316 7 512 32 795 101 408
100 788 267 1140 500 219 145 354 255 539 435 605 591 969 1322 1083 2175 21
164 25 685 5 845 -101 819 -427 1523 -976 2110 -328 351 -772 663 -1210 850
-335 143 -620 220 -1011 275 -156 22 -639 28 -812 10z m787 -510 c357 -52 649
-141 958 -290 324 -157 597 -351 847 -600 254 -254 430 -496 590 -810 170
-334 266 -638 322 -1025 25 -176 25 -652 -1 -825 -57 -387 -152 -688 -323
-1024 -219 -430 -533 -803 -918 -1090 -177 -132 -270 -190 -470 -291 -439
-223 -842 -325 -1335 -337 -346 -9 -575 16 -887 97 -214 55 -380 118 -588 220
-211 104 -332 177 -511 311 -595 443 -1022 1100 -1188 1827 -86 375 -100 841
-35 1222 178 1055 863 1937 1844 2375 267 119 610 212 905 245 52 5 111 12
130 14 82 10 560 -4 660 -19z"/>
<path d="M4308 6531 c-89 -29 -166 -89 -218 -171 -16 -26 -195 -516 -416
-1140 l-389 -1095 0 -95 c0 -89 2 -99 34 -158 38 -70 90 -120 160 -154 l46
-23 698 -3 697 -3 0 231 c0 256 5 279 70 333 27 23 86 47 116 47 7 0 13 48 17
138 3 75 13 164 21 197 9 33 15 63 16 66 0 3 -25 9 -55 12 -70 7 -119 37 -156
96 l-29 45 0 267 0 267 33 48 c42 63 93 89 174 89 52 0 68 -5 105 -30 25 -18
52 -49 66 -75 20 -40 22 -58 22 -202 0 -87 4 -158 8 -158 4 0 16 13 25 30 31
52 177 189 262 245 231 154 517 222 775 185 35 -5 66 -8 67 -6 5 4 -255 733
-283 796 -33 73 -65 113 -127 159 -98 74 -138 81 -452 81 l-275 0 0 -230 c0
-258 -5 -283 -72 -333 -103 -77 -232 -54 -299 52 l-29 45 0 233 0 233 -277 -1
c-240 0 -286 -3 -335 -18z"/>
<path d="M6061 5305 c-314 -71 -559 -278 -670 -565 -79 -202 -83 -468 -10
-651 159 -405 544 -644 963 -599 251 28 485 159 630 354 137 183 190 340 189
566 -1 402 -260 750 -653 875 -73 24 -106 28 -235 31 -107 3 -168 0 -214 -11z
m229 -300 c59 -30 61 -46 58 -361 l-3 -286 -33 -29 c-53 -48 -122 -34 -154 31
-16 31 -18 68 -18 298 0 296 5 322 62 347 42 18 53 18 88 0z m40 -937 c88 -60
92 -172 10 -241 -87 -74 -226 -21 -245 92 -9 52 22 121 68 150 45 29 123 28
167 -1z"/>
</g>
</svg>
