<?xml version="1.0" standalone="no"?>
<!DOCTYPE svg PUBLIC "-//W3C//DTD SVG 20010904//EN"
 "http://www.w3.org/TR/2001/REC-SVG-20010904/DTD/svg10.dtd">
<svg version="1.0" xmlns="http://www.w3.org/2000/svg"
 width="1024.000000pt" height="1024.000000pt" viewBox="0 0 1024.000000 1024.000000"
 preserveAspectRatio="xMidYMid meet">

<g transform="translate(0.000000,1024.000000) scale(0.100000,-0.100000)"
fill="#000000" stroke="none">
<path d="M4753 8765 c-885 -92 -1690 -490 -2304 -1140 -508 -538 -848 -1242
-953 -1975 -42 -289 -46 -709 -11 -980 105 -820 458 -1542 1038 -2128 609
-616 1389 -985 2256 -1068 127 -13 226 -15 421 -10 316 7 512 32 795 101 408
100 788 267 1140 500 219 145 354 255 539 435 605 591 969 1322 1083 2175 21
164 25 685 5 845 -101 819 -427 1523 -976 2110 -328 351 -772 663 -1210 850
-335 143 -620 220 -1011 275 -156 22 -639 28 -812 10z m787 -510 c357 -52 649
-141 958 -290 324 -157 597 -351 847 -600 254 -254 430 -496 590 -810 170
-334 266 -638 322 -1025 25 -176 25 -652 -1 -825 -57 -387 -152 -688 -323
-1024 -219 -430 -533 -803 -918 -1090 -177 -132 -270 -190 -470 -291 -439
-223 -842 -325 -1335 -337 -346 -9 -575 16 -887 97 -214 55 -380 118 -588 220
-211 104 -332 177 -511 311 -595 443 -1022 1100 -1188 1827 -86 375 -100 841
-35 1222 178 1055 863 1937 1844 2375 267 119 610 212 905 245 52 5 111 12
130 14 82 10 560 -4 660 -19z"/>
<path d="M3510 6731 c-202 -64 -352 -218 -417 -427 -17 -56 -18 -121 -18
-1184 l0 -1125 24 -79 c61 -197 236 -365 437 -418 39 -10 350 -13 1589 -13
1467 0 1543 1 1594 18 216 73 363 222 428 432 17 57 18 121 18 1175 0 1233 4
1160 -67 1309 -70 146 -214 267 -377 315 -49 14 -214 16 -1605 15 -1455 0
-1554 -1 -1606 -18z m3103 -392 c21 -6 56 -26 77 -45 74 -67 70 -4 70 -1173 0
-735 -3 -1058 -11 -1086 -15 -52 -82 -119 -134 -134 -57 -16 -2933 -16 -2990
0 -52 15 -119 82 -134 134 -8 28 -11 352 -11 1093 0 1152 -3 1091 58 1156 15
16 45 37 67 47 38 18 100 19 1505 19 1003 0 1477 -3 1503 -11z"/>
<path d="M4091 5919 c-124 -49 -208 -179 -198 -307 9 -119 73 -208 185 -260
47 -21 65 -24 136 -20 66 3 92 10 127 30 56 33 101 81 131 138 33 64 33 205 0
267 -73 139 -243 206 -381 152z"/>
<path d="M5042 5929 c-214 -42 -362 -255 -323 -465 41 -223 242 -371 460 -337
176 27 309 159 342 337 51 273 -203 520 -479 465z"/>
<path d="M5955 5928 c-50 -18 -131 -74 -154 -107 -91 -128 -83 -295 20 -399
61 -62 113 -85 204 -90 67 -4 90 -1 128 16 104 46 166 123 187 230 21 106 -14
208 -96 280 -80 71 -203 100 -289 70z"/>
<path d="M3939 5106 c-153 -41 -257 -180 -247 -330 4 -74 31 -117 88 -146 35
-18 60 -20 240 -20 184 0 200 1 200 18 1 32 58 152 105 217 55 78 154 163 236
202 32 15 59 31 59 35 0 4 -23 14 -52 23 -67 19 -556 21 -629 1z"/>
<path d="M5668 5104 c-27 -8 -48 -18 -48 -22 0 -4 22 -17 48 -29 69 -32 173
-113 222 -175 47 -59 101 -160 120 -225 l13 -43 196 0 c221 0 258 9 302 71 21
29 24 45 24 114 0 64 -5 89 -24 125 -42 80 -87 127 -159 162 l-67 33 -290 2
c-234 2 -299 -1 -337 -13z"/>
<path d="M4810 4910 c-227 -29 -398 -211 -403 -430 -2 -73 17 -117 66 -154 28
-21 37 -21 610 -24 320 -2 601 0 624 3 93 13 143 102 123 218 -31 176 -150
317 -312 369 -57 19 -92 21 -353 24 -159 1 -319 -1 -355 -6z"/>
</g>
</svg>
