<?xml version="1.0" standalone="no"?>
<!DOCTYPE svg PUBLIC "-//W3C//DTD SVG 20010904//EN"
 "http://www.w3.org/TR/2001/REC-SVG-20010904/DTD/svg10.dtd">
<svg version="1.0" xmlns="http://www.w3.org/2000/svg"
 width="1024.000000pt" height="1024.000000pt" viewBox="0 0 1024.000000 1024.000000"
 preserveAspectRatio="xMidYMid meet">

<g transform="translate(0.000000,1024.000000) scale(0.100000,-0.100000)"
fill="#000000" stroke="none">
<path d="M4753 8765 c-885 -92 -1690 -490 -2304 -1140 -508 -538 -848 -1242
-953 -1975 -42 -289 -46 -709 -11 -980 105 -820 458 -1542 1038 -2128 519
-525 1153 -867 1876 -1012 79 -16 147 -33 150 -39 3 -5 132 -230 286 -500 154
-270 282 -491 285 -491 3 0 134 227 292 503 l287 503 81 13 c44 7 149 29 233
51 413 105 773 263 1122 495 219 145 354 255 539 435 605 591 969 1322 1083
2175 21 164 25 685 5 845 -101 819 -427 1523 -976 2110 -328 351 -772 663
-1210 850 -335 143 -620 220 -1011 275 -156 22 -639 28 -812 10z m787 -510
c519 -76 986 -258 1384 -539 104 -73 254 -192 344 -274 l53 -48 -223 -200
-223 -201 -6 46 c-4 25 -11 57 -17 71 -13 33 -70 86 -105 99 -18 7 -165 11
-408 11 -417 0 -423 -1 -454 -60 -21 -40 -21 -210 0 -250 29 -55 52 -60 295
-60 293 0 301 4 310 160 l5 85 102 3 c137 4 143 -2 143 -132 l0 -93 -222 -201
c-183 -164 -225 -197 -232 -183 -15 28 -60 72 -91 89 -26 15 -77 17 -392 20
-229 2 -376 -1 -400 -7 -22 -6 -52 -25 -68 -41 -28 -29 -30 -37 -33 -124 -4
-110 10 -156 60 -186 30 -18 50 -20 253 -20 203 0 223 2 253 20 44 27 62 74
62 160 l0 70 105 0 c120 0 146 -13 144 -72 0 -30 -24 -54 -268 -272 -147 -132
-273 -242 -279 -244 -7 -2 -12 3 -12 12 0 14 -23 16 -190 16 l-190 0 0 -194 0
-194 -71 -62 c-69 -59 -73 -61 -123 -58 l-51 3 -3 253 -2 252 -190 0 c-189 0
-190 0 -194 -22 -3 -13 -21 -156 -41 -318 -19 -162 -40 -338 -46 -390 -7 -52
-19 -151 -28 -220 l-16 -125 -490 -441 -490 -442 -5 1382 -5 1381 -62 3 -63 3
0 -1384 c0 -1340 -1 -1386 -19 -1440 l-20 -56 22 -3 c17 -2 -54 -72 -341 -330
-200 -181 -368 -328 -372 -328 -4 0 -31 30 -58 68 -248 334 -442 757 -537
1172 -85 373 -99 840 -34 1220 178 1055 863 1937 1844 2375 267 119 610 212
905 245 52 5 111 12 130 14 82 10 560 -4 660 -19z m2157 -1302 c88 -124 156
-237 238 -398 170 -334 265 -637 322 -1025 25 -176 25 -652 -1 -825 -57 -387
-152 -688 -323 -1024 -219 -430 -533 -803 -918 -1090 -177 -132 -270 -190
-470 -291 -324 -164 -608 -255 -970 -310 -179 -27 -534 -37 -728 -21 -261 22
-551 86 -804 176 -152 55 -448 199 -588 286 -126 79 -349 245 -427 318 l-60
56 703 634 c387 348 705 629 706 624 2 -5 -12 -137 -32 -292 -19 -155 -35
-289 -35 -297 0 -12 113 -14 799 -14 440 0 802 4 805 9 3 4 -10 131 -29 282
-18 151 -48 389 -65 529 -17 140 -51 419 -76 619 -43 351 -44 365 -27 382 10
9 117 106 238 214 l220 198 3 -304 c2 -279 1 -308 -17 -361 l-20 -58 100 0
c54 0 99 2 99 3 0 2 -9 30 -20 62 -19 54 -20 84 -20 410 0 322 2 355 18 372 9
11 108 102 220 202 l202 182 0 -1129 c0 -978 -2 -1135 -15 -1172 -8 -23 -15
-46 -15 -51 0 -5 43 -9 95 -9 52 0 95 4 95 8 0 5 -7 31 -15 58 -13 42 -15 213
-15 1230 l0 1181 388 351 c213 192 388 351 389 351 1 1 23 -29 50 -66z m-2457
-2263 l0 -160 -125 0 -125 0 0 48 0 48 123 112 c67 61 123 111 125 112 1 0 2
-72 2 -160z m0 -725 l0 -315 -125 0 -125 0 0 315 0 315 125 0 125 0 0 -315z"/>
<path d="M3462 7199 c-26 -13 -55 -39 -70 -62 -25 -37 -27 -50 -30 -164 l-4
-123 66 0 66 0 0 109 c0 139 2 141 141 141 l96 0 5 -84 c4 -55 11 -92 23 -110
34 -52 55 -56 295 -56 243 0 266 5 295 60 22 42 21 212 -1 250 -36 60 -35 60
-456 60 -371 0 -384 -1 -426 -21z"/>
<path d="M4063 6589 c-26 -6 -56 -24 -81 -49 -49 -47 -64 -107 -60 -231 l3
-84 63 -3 62 -3 0 106 c0 142 3 145 145 145 l105 0 0 -77 c0 -89 12 -118 59
-150 33 -22 42 -23 253 -23 243 0 263 4 295 63 26 46 26 211 0 250 -41 63 -36
62 -437 64 -204 1 -383 -3 -407 -8z"/>
<path d="M3920 5581 c0 -426 -2 -515 -15 -551 -8 -23 -15 -46 -15 -51 0 -5 43
-9 95 -9 52 0 95 3 95 8 0 4 -7 29 -15 56 -12 41 -15 135 -15 553 l0 503 -65
0 -65 0 0 -509z"/>
<path d="M3860 4715 l0 -125 125 0 125 0 0 125 0 125 -125 0 -125 0 0 -125z"/>
<path d="M6120 4715 l0 -125 125 0 125 0 0 125 0 125 -125 0 -125 0 0 -125z"/>
<path d="M6682 3588 l3 -123 123 -3 122 -3 0 126 0 125 -125 0 -126 0 3 -122z"/>
</g>
</svg>
