<?xml version="1.0" standalone="no"?>
<!DOCTYPE svg PUBLIC "-//W3C//DTD SVG 20010904//EN"
 "http://www.w3.org/TR/2001/REC-SVG-20010904/DTD/svg10.dtd">
<svg version="1.0" xmlns="http://www.w3.org/2000/svg"
 width="1024.000000pt" height="1024.000000pt" viewBox="0 0 1024.000000 1024.000000"
 preserveAspectRatio="xMidYMid meet">

<g transform="translate(0.000000,1024.000000) scale(0.100000,-0.100000)"
fill="#000000" stroke="none">
<path d="M4753 8765 c-885 -92 -1690 -490 -2304 -1140 -508 -538 -848 -1242
-953 -1975 -42 -289 -46 -709 -11 -980 105 -820 458 -1542 1038 -2128 525
-530 1183 -882 1902 -1017 77 -14 150 -28 162 -30 17 -4 87 -119 304 -500 156
-272 286 -495 289 -495 3 1 133 226 290 501 157 275 290 504 295 508 6 4 69
20 140 35 425 91 864 277 1228 520 221 147 356 256 541 436 605 591 969 1322
1083 2175 21 164 25 685 5 845 -101 819 -427 1523 -976 2110 -328 351 -772
663 -1210 850 -335 143 -620 220 -1011 275 -156 22 -639 28 -812 10z m787
-510 c357 -52 649 -141 958 -290 324 -157 597 -351 847 -600 254 -254 430
-496 590 -810 170 -334 266 -638 322 -1025 25 -176 25 -652 -1 -825 -57 -387
-152 -688 -323 -1024 -219 -430 -533 -803 -918 -1090 -177 -132 -270 -190
-470 -291 -439 -223 -842 -325 -1335 -337 -346 -9 -575 16 -887 97 -214 55
-380 118 -588 220 -211 104 -332 177 -511 311 -595 443 -1022 1100 -1188 1827
-86 375 -100 841 -35 1222 178 1055 863 1937 1844 2375 267 119 610 212 905
245 52 5 111 12 130 14 82 10 560 -4 660 -19z"/>
<path d="M3190 5561 c-134 -43 -230 -126 -288 -249 -32 -67 -37 -88 -40 -168
-3 -66 0 -107 13 -150 49 -172 201 -307 378 -336 183 -30 386 72 475 240 41
77 54 130 53 221 0 171 -90 323 -240 407 -97 54 -246 69 -351 35z"/>
<path d="M5050 5561 c-135 -43 -229 -125 -287 -248 -67 -139 -56 -313 26 -441
134 -206 391 -277 602 -166 281 148 339 514 117 736 -122 122 -303 169 -458
119z"/>
<path d="M6910 5561 c-136 -44 -230 -125 -288 -250 -31 -65 -36 -89 -40 -167
-9 -195 87 -358 262 -444 226 -112 498 -15 614 219 37 75 37 76 37 201 0 123
-1 126 -35 195 -62 123 -176 217 -305 251 -69 19 -179 16 -245 -5z"/>
</g>
</svg>
