<?xml version="1.0" standalone="no"?>
<!DOCTYPE svg PUBLIC "-//W3C//DTD SVG 20010904//EN"
 "http://www.w3.org/TR/2001/REC-SVG-20010904/DTD/svg10.dtd">
<svg version="1.0" xmlns="http://www.w3.org/2000/svg"
 width="1024.000000pt" height="1024.000000pt" viewBox="0 0 1024.000000 1024.000000"
 preserveAspectRatio="xMidYMid meet">

<g transform="translate(0.000000,1024.000000) scale(0.100000,-0.100000)"
fill="#000000" stroke="none">
<path d="M4753 8765 c-885 -92 -1690 -490 -2304 -1140 -508 -538 -848 -1242
-953 -1975 -42 -289 -46 -709 -11 -980 105 -820 458 -1542 1038 -2128 609
-616 1389 -985 2256 -1068 127 -13 226 -15 421 -10 316 7 512 32 795 101 408
100 788 267 1140 500 219 145 354 255 539 435 605 591 969 1322 1083 2175 21
164 25 685 5 845 -101 819 -427 1523 -976 2110 -328 351 -772 663 -1210 850
-335 143 -620 220 -1011 275 -156 22 -639 28 -812 10z m787 -510 c357 -52 649
-141 958 -290 324 -157 597 -351 847 -600 254 -254 430 -496 590 -810 170
-334 266 -638 322 -1025 25 -176 25 -652 -1 -825 -57 -387 -152 -688 -323
-1024 -219 -430 -533 -803 -918 -1090 -177 -132 -270 -190 -470 -291 -439
-223 -842 -325 -1335 -337 -346 -9 -575 16 -887 97 -214 55 -380 118 -588 220
-211 104 -332 177 -511 311 -595 443 -1022 1100 -1188 1827 -86 375 -100 841
-35 1222 178 1055 863 1937 1844 2375 267 119 610 212 905 245 52 5 111 12
130 14 82 10 560 -4 660 -19z"/>
<path d="M3462 7199 c-26 -13 -55 -39 -70 -62 -25 -37 -27 -50 -30 -164 l-4
-123 66 0 66 0 0 109 c0 139 2 141 141 141 l96 0 5 -84 c4 -55 11 -92 23 -110
34 -52 55 -56 295 -56 243 0 266 5 295 60 22 42 21 212 -1 250 -36 60 -35 60
-456 60 -371 0 -384 -1 -426 -21z"/>
<path d="M5928 7204 c-45 -24 -58 -62 -58 -169 0 -109 13 -146 60 -170 23 -12
72 -15 250 -15 293 0 301 4 310 160 l5 85 102 3 c92 2 104 1 123 -18 18 -18
20 -33 20 -125 l0 -105 65 0 65 0 0 104 c0 118 -10 158 -54 205 -57 61 -57 61
-478 61 -319 -1 -388 -3 -410 -16z"/>
<path d="M3360 5337 c0 -1345 -1 -1385 -19 -1440 l-20 -57 100 0 c54 0 99 2
99 4 0 3 -6 17 -12 33 -10 22 -14 340 -18 1433 l-5 1405 -62 3 -63 3 0 -1384z"/>
<path d="M6740 5331 c0 -1209 -2 -1394 -15 -1431 -8 -23 -15 -46 -15 -51 0 -5
43 -9 95 -9 52 0 95 4 95 8 0 5 -7 31 -15 58 -13 42 -15 236 -15 1432 l0 1382
-65 0 -65 0 0 -1389z"/>
<path d="M4063 6589 c-26 -6 -56 -24 -81 -49 -49 -47 -64 -107 -60 -231 l3
-84 63 -3 62 -3 0 106 c0 142 3 145 145 145 l105 0 0 -77 c0 -89 12 -118 59
-150 33 -22 42 -23 253 -23 243 0 263 4 295 63 26 46 26 211 0 250 -41 63 -36
62 -437 64 -204 1 -383 -3 -407 -8z"/>
<path d="M5395 6590 c-17 -5 -44 -23 -60 -40 -28 -29 -30 -37 -33 -124 -4
-110 10 -156 60 -186 30 -18 50 -20 253 -20 203 0 223 2 253 20 44 27 62 74
62 160 l0 70 105 0 c92 0 108 -3 125 -20 17 -17 20 -33 20 -125 l0 -105 60 0
60 0 0 121 c0 126 -5 145 -49 192 -57 63 -51 62 -456 64 -203 1 -384 -2 -400
-7z"/>
<path d="M3920 5581 c0 -426 -2 -515 -15 -551 -8 -23 -15 -46 -15 -51 0 -5 43
-9 95 -9 52 0 95 3 95 8 0 4 -7 29 -15 56 -12 41 -15 135 -15 553 l0 503 -65
0 -65 0 0 -509z"/>
<path d="M6180 5587 c0 -473 -1 -507 -19 -560 l-20 -57 100 0 c54 0 99 2 99 3
0 2 -9 30 -20 62 -19 55 -20 84 -20 557 l0 498 -60 0 -60 0 0 -503z"/>
<path d="M4606 5888 c-3 -13 -14 -99 -25 -193 -23 -188 -51 -417 -111 -905
-21 -179 -62 -509 -89 -735 -28 -225 -55 -443 -61 -483 -5 -40 -10 -82 -10
-92 0 -20 12 -20 799 -20 440 0 802 4 805 9 3 4 -10 131 -29 282 -18 151 -47
387 -64 524 -17 138 -53 435 -81 660 -28 226 -64 520 -80 655 -17 135 -33 262
-36 283 l-6 37 -189 0 -189 0 -2 -252 -3 -253 -120 0 -120 0 -3 253 -2 252
-190 0 c-189 0 -190 0 -194 -22z m634 -1048 l0 -310 -125 0 -125 0 0 310 0
310 125 0 125 0 0 -310z m0 -875 l0 -315 -125 0 -125 0 0 315 0 315 125 0 125
0 0 -315z"/>
<path d="M3860 4715 l0 -125 125 0 125 0 0 125 0 125 -125 0 -125 0 0 -125z"/>
<path d="M6120 4715 l0 -125 125 0 125 0 0 125 0 125 -125 0 -125 0 0 -125z"/>
<path d="M3300 3585 l0 -126 123 3 122 3 3 123 3 122 -126 0 -125 0 0 -125z"/>
<path d="M6682 3588 l3 -123 123 -3 122 -3 0 126 0 125 -125 0 -126 0 3 -122z"/>
</g>
</svg>
